<?xml version="1.0" encoding="UTF-8" standalone="no"?>
<!-- Created with Inkscape (http://www.inkscape.org/) -->

<svg
   xmlns:dc="http://purl.org/dc/elements/1.1/"
   xmlns:cc="http://creativecommons.org/ns#"
   xmlns:rdf="http://www.w3.org/1999/02/22-rdf-syntax-ns#"
   xmlns:svg="http://www.w3.org/2000/svg"
   xmlns="http://www.w3.org/2000/svg"
   xmlns:sodipodi="http://sodipodi.sourceforge.net/DTD/sodipodi-0.dtd"
   xmlns:inkscape="http://www.inkscape.org/namespaces/inkscape"
   width="60"
   height="60"
   id="svg2"
   version="1.1"
   inkscape:version="0.48.4 r9939"
   sodipodi:docname="passwordmaker-mobile-icon.svg"
   inkscape:export-filename="/home/mokush/Dev/passwordmaker-mobile/artwork/passwordmaker-mobile-icon-128.png"
   inkscape:export-xdpi="768"
   inkscape:export-ydpi="768">
  <defs
     id="defs4" />
  <sodipodi:namedview
     id="base"
     pagecolor="#ffffff"
     bordercolor="#666666"
     borderopacity="1.0"
     inkscape:pageopacity="0.0"
     inkscape:pageshadow="2"
     inkscape:zoom="3.959798"
     inkscape:cx="41.505914"
     inkscape:cy="17.70201"
     inkscape:document-units="px"
     inkscape:current-layer="layer1"
     showgrid="false"
     inkscape:window-width="1233"
     inkscape:window-height="800"
     inkscape:window-x="47"
     inkscape:window-y="0"
     inkscape:window-maximized="1"
     showguides="true"
     inkscape:guide-bbox="true">
    <inkscape:grid
       type="xygrid"
       id="grid3004"
       empspacing="5"
       visible="true"
       enabled="true"
       snapvisiblegridlinesonly="true" />
  </sodipodi:namedview>
  <metadata
     id="metadata7">
    <rdf:RDF>
      <cc:Work
         rdf:about="">
        <dc:format>image/svg+xml</dc:format>
        <dc:type
           rdf:resource="http://purl.org/dc/dcmitype/StillImage" />
        <dc:title></dc:title>
      </cc:Work>
    </rdf:RDF>
  </metadata>
  <g
     inkscape:label="Layer 1"
     inkscape:groupmode="layer"
     id="layer1"
     transform="translate(0,-992.3622)">
    <path
       sodipodi:type="arc"
       style="fill:#f7ca18;fill-opacity:1;stroke:none"
       id="path3006"
       sodipodi:cx="30"
       sodipodi:cy="30"
       sodipodi:rx="30"
       sodipodi:ry="30"
       d="M 60,30 C 60,46.568542 46.568542,60 30,60 13.431458,60 0,46.568542 0,30 0,13.431458 13.431458,0 30,0 46.568542,0 60,13.431458 60,30 z"
       transform="matrix(0.96666667,0,0,0.96666667,0.9999999,993.3622)" />
    <g
       id="g3791"
       transform="matrix(1.0581207,0,0,1.0581207,-1.7436218,-59.420407)">
      <path
         sodipodi:nodetypes="sscscss"
         inkscape:connector-curvature="0"
         id="path3017"
         d="m 30.505076,1011.706 c -8.495047,0 -15.393666,3.5452 -15.393666,7.916 0,0.395 1.115415,1.8589 1.22395,2.2384 1.103811,-3.8133 6.451169,-6.7949 14.169716,-6.7949 7.718547,0 12.70706,3.0414 13.810871,6.8548 0.108535,-0.3795 1.582795,-1.9033 1.582795,-2.2983 0,-4.3708 -6.898619,-7.916 -15.393666,-7.916 z"
         style="fill:#7d6304;fill-opacity:1;stroke:none" />
      <path
         id="path3008"
         transform="translate(0,992.3622)"
         d="M 30,18.78125 C 18.940287,18.78125 9.96875,23.807647 9.96875,30 9.96875,36.192353 18.940287,41.21875 30,41.21875 41.059713,41.21875 50.03125,36.192353 50.03125,30 50.03125,23.807647 41.059713,18.78125 30,18.78125 z m 0,0.5625 c 7.642625,0 13.84375,3.470881 13.84375,7.75 0,4.279119 -6.201125,7.75 -13.84375,7.75 -7.642625,0 -13.84375,-3.470881 -13.84375,-7.75 0,-4.279119 6.201125,-7.75 13.84375,-7.75 z"
         style="fill:#ffffff;fill-opacity:1;stroke:none"
         inkscape:connector-curvature="0" />
    </g>
  </g>
</svg>
